<svg xmlns="http://www.w3.org/2000/svg" viewBox="-9212 -3422 88.727 95.447">
  <g id="Group_222" data-name="Group 222" transform="translate(-9211.98 -3489)">
    <g id="Group_205" data-name="Group 205" transform="translate(0.017 138.119)">
      <path id="Path_66" data-name="Path 66" d="M.615,630.347C.8,628.608,2.638,627.3,4.773,627.3c1.912,0,3.726.839,4.108,2.961a.352.352,0,0,1-.345.419H6.981a.356.356,0,0,1-.333-.247,1.786,1.786,0,0,0-1.813-1.123,1.777,1.777,0,0,0-1.8,1.073,1.376,1.376,0,0,0,.025.95,2.141,2.141,0,0,0,1.406.925l1.776.432c2.492.617,3.109,2.134,3.109,3.491,0,2.233-2.159,3.59-4.638,3.59A4.258,4.258,0,0,1,.282,636.33a.363.363,0,0,1,.358-.407H2.108a.334.334,0,0,1,.333.247,1.87,1.87,0,0,0,.913,1.11,3.2,3.2,0,0,0,1.9.407A1.728,1.728,0,0,0,7.08,636.12c.025-.876-.716-1.308-1.591-1.517l-1.665-.358C1.639,633.666.418,632.555.615,630.347Z" transform="translate(-0.28 -621.033)"/>
      <path id="Path_67" data-name="Path 67" d="M104.348,640.969l-2.837-7.661a.355.355,0,0,0-.666,0l-2.739,7.648a.361.361,0,0,1-.333.234H96.366a.344.344,0,0,1-.333-.234L91.74,629.681a.357.357,0,0,1,.333-.481H93.8a.361.361,0,0,1,.333.234l2.578,7.217a.355.355,0,0,0,.666,0l2.578-7.217a.361.361,0,0,1,.333-.234h1.764a.361.361,0,0,1,.333.234l2.578,7.217a.355.355,0,0,0,.666,0l2.578-7.217a.361.361,0,0,1,.333-.234h1.727a.357.357,0,0,1,.333.481l-4.182,11.275a.361.361,0,0,1-.333.234h-1.431A.325.325,0,0,1,104.348,640.969Z" transform="translate(-80.437 -622.699)"/>
      <path id="Path_68" data-name="Path 68" d="M273.489,638.786a.353.353,0,0,0-.592-.259,5.316,5.316,0,0,1-3.615,1.357,6.244,6.244,0,0,1,0-12.484,5.335,5.335,0,0,1,3.615,1.308.353.353,0,0,0,.592-.259v-.432a.358.358,0,0,1,.358-.358h1.6a.358.358,0,0,1,.358.358v11.275a.358.358,0,0,1-.358.358h-1.6a.358.358,0,0,1-.358-.358Zm-4-9.117a3.777,3.777,0,0,0-3.9,3.923,3.935,3.935,0,1,0,3.9-3.923Z" transform="translate(-230.765 -621.121)"/>
      <path id="Path_69" data-name="Path 69" d="M404.086,639.538h-1.628a.358.358,0,0,1-.358-.358V627.9a.358.358,0,0,1,.358-.358h1.628a.358.358,0,0,1,.358.358v.358a.36.36,0,0,0,.617.247,4.627,4.627,0,0,1,3.133-1.209c2.973,0,4.614,1.949,4.614,5.317v6.575a.358.358,0,0,1-.358.358h-1.628a.358.358,0,0,1-.358-.358v-6.415c0-2-1-3.183-2.64-3.183a3.19,3.19,0,0,0-3.392,3.491v6.106A.337.337,0,0,1,404.086,639.538Z" transform="translate(-352.53 -621.033)"/>
      <path id="Path_70" data-name="Path 70" d="M526.361,595h-1.6a.358.358,0,0,1-.358-.358V576.858a.358.358,0,0,1,.358-.358h1.6a.358.358,0,0,1,.358.358v9.487a.352.352,0,0,0,.6.247l3.417-3.467a.38.38,0,0,1,.247-.111h2.184a.352.352,0,0,1,.247.6l-4.293,4.342a.362.362,0,0,0-.012.494l5.576,5.958a.353.353,0,0,1-.259.592h-2.11a.336.336,0,0,1-.259-.111l-4.75-5.083a.358.358,0,0,0-.617.247v4.6A.32.32,0,0,1,526.361,595Z" transform="translate(-459.743 -576.5)"/>
      <path id="Path_71" data-name="Path 71" d="M625.682,646.533l2.258-5.564a.346.346,0,0,0,0-.271l-4.54-11a.357.357,0,0,1,.333-.494h1.727a.362.362,0,0,1,.333.222l3.17,7.661a.352.352,0,0,0,.654,0l3.17-7.661a.35.35,0,0,1,.333-.222h1.715a.361.361,0,0,1,.333.494l-7.155,17.11a.35.35,0,0,1-.333.222H626A.36.36,0,0,1,625.682,646.533Z" transform="translate(-546.505 -622.699)"/>
    </g>
    <path id="Path_72" data-name="Path 72" d="M63.355,12.83A25.271,25.271,0,0,0,38.139,38.095,12.85,12.85,0,1,1,23.8,25.425,1.641,1.641,0,0,0,25.26,23.8V14.532a1.64,1.64,0,0,0-1.739-1.641,25.271,25.271,0,1,0,27,25.216v-.136a12.521,12.521,0,0,1,3.861-8.895,12.761,12.761,0,1,1,9.03,21.774,16.141,16.141,0,0,1-7.377-2.011,1.635,1.635,0,0,0-2.282.913A28.058,28.058,0,0,1,49.7,57.216a1.652,1.652,0,0,0,.456,2.393A25.27,25.27,0,0,0,80.009,19.035,25.233,25.233,0,0,0,88.595,1.752,1.686,1.686,0,0,0,86.929,0H77.776a1.64,1.64,0,0,0-1.628,1.443A12.967,12.967,0,0,1,72.372,9.03a12.484,12.484,0,0,1-8.894,3.824Z" transform="translate(0 67)"/>
  </g>
</svg>
