<svg width="635" height="414" viewBox="0 0 635 414" fill="none" xmlns="http://www.w3.org/2000/svg">
<path d="M56.5809 5.83762C-26.152 28.653 -14.7655 166.108 68.6467 212.35C152.059 258.592 274.132 228.493 328.326 183.449C377.639 142.462 392.444 72.0478 351 47.8759C305.281 21.2105 300.523 47.8759 231.275 47.8759C180.388 47.8759 149.961 -19.9139 56.5809 5.83762Z" transform="translate(70.4997 46.5) scale(1.5)" fill="#45DAED"/>
<path d="M73.4871 32.0989C40.9963 54.4755 -3.18153 27.4073 0.181094 7.30033C3.54372 -12.8066 41.2057 16.5206 73.4871 2.60882C88.6706 -3.93453 93.4231 18.3688 73.4871 32.0989Z" transform="translate(48.1053 244.23) scale(1.5) rotate(51.6723)" fill="#45DAED"/>
<circle cx="15" cy="15" r="15" transform="translate(15.0005 184.5) scale(1.5)" fill="#45DAED"/>
<path d="M105.373 9.50404C105.373 31.1534 75.0851 41.7893 53.4357 41.7893C31.7863 41.7893 0 33.8968 0 12.2474C0 -9.40196 30.1529 9.96436 51.8023 9.96436C73.4516 9.96436 105.373 -12.1453 105.373 9.50404Z" transform="translate(324.785 21) scale(1.5) rotate(13.1727)" fill="#45DAED"/>
<path d="M0 10C0 4.47715 4.47715 0 10 0H83.3798C88.9027 0 93.3798 4.47715 93.3798 10V69.8725C93.3798 75.3953 88.9027 79.8725 83.3798 79.8725H10C4.47715 79.8725 0 75.3953 0 69.8725V10Z" transform="translate(78.0003 0.00494385) scale(1.5)" fill="white"/>
<path d="M16.1194 6.88338C15.894 6.3852 15.6334 5.93839 15.3385 5.54279C16.2241 3.60026 16.6663 2.41426 16.6663 1.98479C16.6663 1.9168 16.6323 1.8562 16.5624 1.80464C14.4785 0.601668 13.4025 1.0582e-06 13.333 1.0582e-06L13.1769 0.0518309C12.4652 0.756802 11.6661 1.71904 10.7811 2.93935C10.434 2.90513 10.174 2.88752 10.0004 2.88752C9.82629 2.88752 9.56624 2.90513 9.21881 2.93935C8.97664 2.57815 8.52467 1.99779 7.86502 1.199C7.20555 0.400209 6.80595 8.92417e-05 6.66703 8.92417e-05C6.63237 8.92417e-05 6.37205 0.137527 5.8857 0.413212C5.39972 0.688266 4.88756 0.979933 4.34931 1.28993C3.81061 1.59993 3.50751 1.77105 3.43791 1.80564C3.36795 1.85693 3.33356 1.91752 3.33356 1.98551C3.33356 2.4157 3.77622 3.6008 4.66153 5.54351C4.36691 5.93911 4.10614 6.38592 3.88057 6.88374C1.29349 7.14119 -1.11344e-07 7.40793 -1.11344e-07 7.6829V11.292C-1.11344e-07 11.5671 1.29349 11.8334 3.88057 12.0912C4.08844 12.5554 4.34913 13.0022 4.66153 13.4311C3.77622 15.3736 3.33356 16.5596 3.33356 16.9891C3.33356 17.0577 3.36795 17.1183 3.43791 17.1696C5.55551 18.3899 6.63237 19 6.66703 19C6.80586 19 7.20546 18.5961 7.86502 17.7883C8.52458 16.9803 8.976 16.3965 9.21881 16.0355C9.56596 16.0692 9.82629 16.0865 10.0004 16.0865C10.1739 16.0865 10.434 16.0692 10.7811 16.0355C11.0236 16.3965 11.4753 16.9803 12.1349 17.7883C12.7944 18.5961 13.1937 19 13.333 19C13.3676 19 14.4446 18.3897 16.5624 17.1696C16.6323 17.1183 16.6663 17.0581 16.6663 16.9891C16.6663 16.5596 16.2235 15.3736 15.3385 13.4311C15.651 13.0022 15.9112 12.5554 16.1194 12.0912C18.7064 11.8334 20 11.5671 20 11.292V7.6829C20 7.40784 18.7064 7.1411 16.1194 6.88338ZM12.3562 11.8203C11.706 12.4649 10.92 12.7878 9.99977 12.7878C9.07925 12.7878 8.29363 12.4649 7.6431 11.8203C6.99193 11.1756 6.66603 10.3982 6.66603 9.48718C6.66603 8.59375 6.99631 7.8197 7.65615 7.1671C8.31562 6.51414 9.09704 6.18744 9.99968 6.18744C10.9021 6.18744 11.684 6.51378 12.3439 7.1671C13.0031 7.81979 13.3334 8.59384 13.3334 9.48718C13.3329 10.3982 13.0076 11.1756 12.3562 11.8203Z" transform="translate(96.0001 46.5) scale(1.5)" fill="#818181"/>
<path d="M16.1194 6.88338C15.894 6.3852 15.6334 5.93839 15.3385 5.54279C16.2241 3.60026 16.6663 2.41426 16.6663 1.98479C16.6663 1.9168 16.6323 1.8562 16.5624 1.80464C14.4785 0.601668 13.4025 1.0582e-06 13.333 1.0582e-06L13.1769 0.0518309C12.4652 0.756802 11.6661 1.71904 10.7811 2.93935C10.434 2.90513 10.174 2.88752 10.0004 2.88752C9.82629 2.88752 9.56624 2.90513 9.21881 2.93935C8.97664 2.57815 8.52467 1.99779 7.86502 1.199C7.20555 0.400209 6.80595 8.92417e-05 6.66703 8.92417e-05C6.63237 8.92417e-05 6.37205 0.137527 5.8857 0.413212C5.39972 0.688266 4.88756 0.979933 4.34931 1.28993C3.81061 1.59993 3.50751 1.77105 3.43791 1.80564C3.36795 1.85693 3.33356 1.91752 3.33356 1.98551C3.33356 2.4157 3.77622 3.6008 4.66153 5.54351C4.36691 5.93911 4.10614 6.38592 3.88057 6.88374C1.29349 7.14119 -1.11344e-07 7.40793 -1.11344e-07 7.6829V11.292C-1.11344e-07 11.5671 1.29349 11.8334 3.88057 12.0912C4.08844 12.5554 4.34913 13.0022 4.66153 13.4311C3.77622 15.3736 3.33356 16.5596 3.33356 16.9891C3.33356 17.0577 3.36795 17.1183 3.43791 17.1696C5.55551 18.3899 6.63237 19 6.66703 19C6.80586 19 7.20546 18.5961 7.86502 17.7883C8.52458 16.9803 8.976 16.3965 9.21881 16.0355C9.56596 16.0692 9.82629 16.0865 10.0004 16.0865C10.1739 16.0865 10.434 16.0692 10.7811 16.0355C11.0236 16.3965 11.4753 16.9803 12.1349 17.7883C12.7944 18.5961 13.1937 19 13.333 19C13.3676 19 14.4446 18.3897 16.5624 17.1696C16.6323 17.1183 16.6663 17.0581 16.6663 16.9891C16.6663 16.5596 16.2235 15.3736 15.3385 13.4311C15.651 13.0022 15.9112 12.5554 16.1194 12.0912C18.7064 11.8334 20 11.5671 20 11.292V7.6829C20 7.40784 18.7064 7.1411 16.1194 6.88338ZM12.3562 11.8203C11.706 12.4649 10.92 12.7878 9.99977 12.7878C9.07925 12.7878 8.29363 12.4649 7.6431 11.8203C6.99193 11.1756 6.66603 10.3982 6.66603 9.48718C6.66603 8.59375 6.99631 7.8197 7.65615 7.1671C8.31562 6.51414 9.09704 6.18744 9.99968 6.18744C10.9021 6.18744 11.684 6.51378 12.3439 7.1671C13.0031 7.81979 13.3334 8.59384 13.3334 9.48718C13.3329 10.3982 13.0076 11.1756 12.3562 11.8203Z" transform="translate(133.5 46.5) scale(1.5)" fill="#818181"/>
<path d="M16.1194 6.88338C15.894 6.3852 15.6334 5.93839 15.3385 5.54279C16.2241 3.60026 16.6663 2.41426 16.6663 1.98479C16.6663 1.9168 16.6323 1.8562 16.5624 1.80464C14.4785 0.601668 13.4025 1.0582e-06 13.333 1.0582e-06L13.1769 0.0518309C12.4652 0.756802 11.6661 1.71904 10.7811 2.93935C10.434 2.90513 10.174 2.88752 10.0004 2.88752C9.82629 2.88752 9.56624 2.90513 9.21881 2.93935C8.97664 2.57815 8.52467 1.99779 7.86502 1.199C7.20555 0.400209 6.80595 8.92417e-05 6.66703 8.92417e-05C6.63237 8.92417e-05 6.37205 0.137527 5.8857 0.413212C5.39972 0.688266 4.88756 0.979933 4.34931 1.28993C3.81061 1.59993 3.50751 1.77105 3.43791 1.80564C3.36795 1.85693 3.33356 1.91752 3.33356 1.98551C3.33356 2.4157 3.77622 3.6008 4.66153 5.54351C4.36691 5.93911 4.10614 6.38592 3.88057 6.88374C1.29349 7.14119 -1.11344e-07 7.40793 -1.11344e-07 7.6829V11.292C-1.11344e-07 11.5671 1.29349 11.8334 3.88057 12.0912C4.08844 12.5554 4.34913 13.0022 4.66153 13.4311C3.77622 15.3736 3.33356 16.5596 3.33356 16.9891C3.33356 17.0577 3.36795 17.1183 3.43791 17.1696C5.55551 18.3899 6.63237 19 6.66703 19C6.80586 19 7.20546 18.5961 7.86502 17.7883C8.52458 16.9803 8.976 16.3965 9.21881 16.0355C9.56596 16.0692 9.82629 16.0865 10.0004 16.0865C10.1739 16.0865 10.434 16.0692 10.7811 16.0355C11.0236 16.3965 11.4753 16.9803 12.1349 17.7883C12.7944 18.5961 13.1937 19 13.333 19C13.3676 19 14.4446 18.3897 16.5624 17.1696C16.6323 17.1183 16.6663 17.0581 16.6663 16.9891C16.6663 16.5596 16.2235 15.3736 15.3385 13.4311C15.651 13.0022 15.9112 12.5554 16.1194 12.0912C18.7064 11.8334 20 11.5671 20 11.292V7.6829C20 7.40784 18.7064 7.1411 16.1194 6.88338ZM12.3562 11.8203C11.706 12.4649 10.92 12.7878 9.99977 12.7878C9.07925 12.7878 8.29363 12.4649 7.6431 11.8203C6.99193 11.1756 6.66603 10.3982 6.66603 9.48718C6.66603 8.59375 6.99631 7.8197 7.65615 7.1671C8.31562 6.51414 9.09704 6.18744 9.99968 6.18744C10.9021 6.18744 11.684 6.51378 12.3439 7.1671C13.0031 7.81979 13.3334 8.59384 13.3334 9.48718C13.3329 10.3982 13.0076 11.1756 12.3562 11.8203Z" transform="translate(171 46.5) scale(1.5)" fill="#818181"/>
<path d="M0 10C0 4.47715 4.47715 0 10 0H83.3798C88.9027 0 93.3798 4.47715 93.3798 10V21.0191H0V10Z" transform="translate(77.9999) scale(1.5)" fill="#EC8712"/>
<path d="M0 10C0 4.47715 4.47715 0 10 0H83C88.5229 0 93 4.47715 93 10V69C93 74.5229 88.5229 79 83 79H10C4.47715 79 0 74.5229 0 69V10Z" transform="translate(436.5 37.5) scale(1.5)" fill="white"/>
<path d="M0 10C0 4.47715 4.47715 0 10 0H83.3798C88.9027 0 93.3798 4.47715 93.3798 10V21.0191H0V10Z" transform="translate(436.5 37.5) scale(1.5)" fill="#EC8712"/>
<path d="M4.22223 17.5512L17.9885 23.0197V27.2562L0 19.0642V15.9085L17.9885 7.73809V11.9746L4.22223 17.5512Z" transform="translate(465 82.5) scale(1.5)" fill="#818181"/>
<path d="M22.0758 34.1729H18.5793L31.9496 0H35.4242L22.0758 34.1729Z" transform="translate(465 82.5) scale(1.5)" fill="#818181"/>
<path d="M51.0787 17.4215L36.5428 11.8233V7.71647L55.3229 15.8869V19.0426L36.5428 27.2346V23.0846L51.0787 17.4215Z" transform="translate(465 82.5) scale(1.5)" fill="#818181"/>
<path d="M0 10C0 4.47715 4.47715 0 10 0H131.644C137.166 0 141.644 4.47715 141.644 10V137.93C141.644 143.453 137.166 147.93 131.644 147.93H10C4.47715 147.93 0 143.453 0 137.93V10Z" transform="translate(330 192) scale(1.5)" fill="white"/>
<rect width="114" height="9" rx="4.5" transform="translate(351 309) scale(1.5)" fill="#E5E5E5"/>
<rect width="114" height="9" rx="4.5" transform="translate(351 259.519) scale(1.5)" fill="#E5E5E5"/>
<rect width="114" height="9" rx="4.5" transform="translate(351 357) scale(1.5)" fill="#E5E5E5"/>
<path d="M0 10C0 4.47715 4.47715 0 10 0H131.644C137.166 0 141.644 4.47715 141.644 10V21.0191H0V10Z" transform="translate(330 192) scale(1.5)" fill="#EC8712"/>
<path d="M21.5826 11.5605C21.5826 17.1191 17.0847 21.621 11.5413 21.621C5.998 21.621 1.5 17.1191 1.5 11.5605C1.5 6.00189 5.998 1.5 11.5413 1.5C17.0847 1.5 21.5826 6.00189 21.5826 11.5605Z" transform="translate(381.198 345.621) scale(1.5)" fill="#EC8712" stroke="#E5E5E5" stroke-width="3"/>
<path d="M21.5826 11.5605C21.5826 17.1191 17.0847 21.621 11.5413 21.621C5.998 21.621 1.5 17.1191 1.5 11.5605C1.5 6.00189 5.998 1.5 11.5413 1.5C17.0847 1.5 21.5826 6.00189 21.5826 11.5605Z" transform="translate(460.627 249) scale(1.5)" fill="#EC8712" stroke="#E5E5E5" stroke-width="3"/>
<rect width="244" height="161.675" rx="10" transform="translate(46.4998 82.5) scale(1.5)" fill="#256086"/>
<path d="M0 0H244V23.2078C244 28.7306 239.523 33.2078 234 33.2078H10C4.47715 33.2078 0 28.7306 0 23.2078V0Z" transform="translate(46.4998 275.688) scale(1.5)" fill="#E4E4E4"/>
<rect width="106" height="13" rx="6.5" transform="translate(148.5 379.5) scale(1.5)" fill="#E4E4E4"/>
<path d="M8.14286 0H48.8571L57 36H0L8.14286 0Z" transform="translate(186 325.5) scale(1.5)" fill="#B6B6B6"/>
<ellipse cx="4.08939" cy="4.11039" rx="4.08939" ry="4.11039" transform="translate(222.344 294.185) scale(1.5)" fill="#9E9E9E"/>
<path d="M60.4824 52.8527C60.4824 52.5003 60.3612 52.1474 60.1196 51.795C58.1845 49.4308 56.6301 47.4027 55.4548 45.7108C56.1804 44.2649 56.7333 42.9243 57.1124 41.6909L65.1459 40.4211C65.4577 40.3852 65.7342 40.2006 65.9758 39.8663C66.2174 39.5298 66.3372 39.1866 66.3372 38.834V29.0455C66.3372 28.658 66.2174 28.3137 65.9758 28.0144C65.7342 27.7151 65.4403 27.5292 65.0949 27.4597L57.2166 26.2428C56.8357 25.0433 56.2488 23.5964 55.4543 21.9041C55.9718 21.1277 56.7502 20.0692 57.7869 18.7296C58.8233 17.389 59.5501 16.4371 59.9636 15.8726C60.206 15.52 60.3265 15.1846 60.3265 14.8675C60.3265 13.915 57.8385 11.0933 52.8645 6.40194C52.5192 6.12027 52.1563 5.97924 51.7749 5.97924C51.3612 5.97924 51.0158 6.10136 50.738 6.34931L44.6222 11.0581C43.2061 10.3176 41.9104 9.77108 40.7355 9.41732L39.5434 1.32293C39.5095 0.970288 39.3365 0.66119 39.0255 0.396937C38.7144 0.132498 38.3689 -4.86351e-07 37.9884 -4.86351e-07H28.3493C27.5548 -4.86351e-07 27.0365 0.423251 26.7947 1.26957C26.3798 2.89233 25.9828 5.60881 25.6026 9.41732C24.1172 9.91099 22.787 10.4754 21.6123 11.1103L15.6524 6.34912C15.3069 6.10173 14.9443 5.97906 14.564 5.97906C13.9066 5.97906 12.5421 7.01939 10.4692 9.10081C8.39601 11.1815 6.97864 12.7511 6.21913 13.8094C5.97698 14.092 5.85662 14.4446 5.85662 14.8679C5.85662 15.1849 5.97679 15.5376 6.21913 15.9256C8.15367 18.2895 9.70827 20.3175 10.8833 22.0098C10.1579 23.4567 9.60535 24.7963 9.22559 26.0306L1.19209 27.2996C0.880772 27.3349 0.604668 27.5198 0.362511 27.8543C0.120897 28.1901 0 28.5334 0 28.8859V38.6738C0 39.0621 0.120897 39.4056 0.362511 39.7049C0.604668 40.0055 0.898017 40.1728 1.24419 40.2078L9.12176 41.4776C9.53637 42.8174 10.1416 44.2641 10.9361 45.8159C10.3832 46.5926 9.57158 47.6688 8.50039 49.0437C7.42847 50.42 6.72051 51.3547 6.37525 51.848C6.13345 52.2006 6.01237 52.5368 6.01237 52.8525C6.01237 53.8063 8.50039 56.6271 13.4757 61.3188C13.8211 61.6003 14.1835 61.7404 14.5641 61.7404C15.0132 61.7404 15.3587 61.6181 15.6003 61.3707L21.7158 56.6627C23.1319 57.4034 24.4276 57.9493 25.6028 58.3022L26.7949 66.3973C26.829 66.7498 27.0022 67.0592 27.3128 67.3231C27.6238 67.5875 27.9692 67.7195 28.3495 67.7195H37.9886C38.7837 67.7195 39.3016 67.2966 39.5436 66.4499C39.9582 64.7916 40.3552 62.0584 40.7357 58.2488C42.1173 57.8272 43.4473 57.2787 44.726 56.6095L50.6861 61.3707C51.0316 61.6181 51.3943 61.7404 51.7746 61.7404C52.4311 61.7404 53.7879 60.6916 55.8435 58.5918C57.8984 56.4946 59.3243 54.9149 60.1194 53.8571C60.3612 53.611 60.4824 53.2763 60.4824 52.8527ZM42.5495 43.4367C39.9588 46.0811 36.8316 47.4038 33.1694 47.4038C29.5064 47.4038 26.3792 46.0809 23.7885 43.4367C21.1973 40.791 19.9016 37.5985 19.9016 33.8598C19.9016 30.1214 21.1973 26.929 23.7885 24.2839C26.3792 21.6386 29.5066 20.3162 33.1694 20.3162C36.8316 20.3162 39.9588 21.6384 42.5495 24.2839C45.1412 26.929 46.4366 30.1214 46.4366 33.8598C46.4366 37.5985 45.1414 40.791 42.5495 43.4367Z" transform="translate(146.689 132.369) scale(1.5)" fill="#4796BA"/>
<path d="M32.0801 14.1259C31.6315 13.1035 31.1127 12.1866 30.5259 11.3748C32.2883 7.38835 33.1685 4.95447 33.1685 4.07313C33.1685 3.93359 33.1008 3.80925 32.9616 3.70344C28.8144 1.23473 26.6729 2.17161e-06 26.5346 2.17161e-06L26.224 0.106366C24.8076 1.55309 23.2174 3.52777 21.456 6.03206C20.7653 5.96183 20.2478 5.92569 19.9023 5.92569C19.5558 5.92569 19.0382 5.96183 18.3468 6.03206C17.8648 5.29081 16.9654 4.09982 15.6526 2.46056C14.3401 0.821297 13.5449 0.000183139 13.2684 0.000183139C13.1994 0.000183139 12.6813 0.282229 11.7134 0.847983C10.7462 1.41244 9.72697 2.01099 8.65578 2.64716C7.58368 3.28334 6.98046 3.63451 6.84196 3.70548C6.70272 3.81074 6.63429 3.93508 6.63429 4.07462C6.63429 4.95744 7.51524 7.38946 9.27714 11.3762C8.69081 12.1881 8.17183 13.105 7.72291 14.1266C2.57424 14.6549 -2.21591e-07 15.2024 -2.21591e-07 15.7666V23.1731C-2.21591e-07 23.7376 2.57424 24.2843 7.72291 24.8131C8.13661 25.7658 8.65541 26.6827 9.27714 27.563C7.51524 31.5494 6.63429 33.9832 6.63429 34.8646C6.63429 35.0054 6.70272 35.1298 6.84196 35.235C11.0563 37.7393 13.1994 38.9913 13.2684 38.9913C13.5447 38.9913 14.3399 38.1624 15.6526 36.5046C16.9652 34.8464 17.8636 33.6484 18.3468 32.9077C19.0377 32.9768 19.5558 33.0122 19.9023 33.0122C20.2476 33.0122 20.7653 32.9768 21.456 32.9077C21.9387 33.6484 22.8376 34.8464 24.1502 36.5046C25.4629 38.1624 26.2574 38.9913 26.5346 38.9913C26.6036 38.9913 28.7469 37.7388 32.9616 35.235C33.1008 35.1298 33.1685 35.0062 33.1685 34.8646C33.1685 33.9831 32.2872 31.5492 30.5259 27.563C31.1478 26.6827 31.6657 25.7658 32.0801 24.8131C37.2286 24.2843 39.803 23.7376 39.803 23.1731V15.7666C39.803 15.2022 37.2286 14.6548 32.0801 14.1259ZM24.5906 24.2572C23.2967 25.5801 21.7325 26.2428 19.901 26.2428C18.0691 26.2428 16.5056 25.5801 15.2109 24.2572C13.915 22.9343 13.2664 21.3389 13.2664 19.4693C13.2664 17.6359 13.9237 16.0474 15.2369 14.7081C16.5493 13.3681 18.1045 12.6977 19.9009 12.6977C21.6969 12.6977 23.2529 13.3674 24.5661 14.7081C25.8782 16.0476 26.5355 17.636 26.5355 19.4693C26.5344 21.3389 25.8871 22.9343 24.5906 24.2572Z" transform="translate(236.248 194.587) scale(1.5)" fill="#4796BA"/>
<path d="M32.0801 14.1261C31.6315 13.1032 31.1127 12.1862 30.5259 11.3744C32.2883 7.38928 33.1685 4.9554 33.1685 4.07369C33.1685 3.93323 33.1008 3.80925 32.9616 3.70325C28.8144 1.23436 26.6729 -6.22077e-08 26.5346 -6.22077e-08L26.224 0.105627C24.8076 1.55254 23.2174 3.52721 21.456 6.03132C20.7653 5.96127 20.2478 5.92569 19.9023 5.92569C19.5558 5.92569 19.0382 5.96127 18.3468 6.03132C17.8648 5.29063 16.9654 4.10038 15.6526 2.46037C14.3401 0.820001 13.5449 0.000185147 13.2684 0.000185147C13.1994 0.000185147 12.6813 0.282043 11.7134 0.846871C10.7462 1.41188 9.72697 2.01118 8.65578 2.64624C7.58368 3.28149 6.98046 3.63395 6.84196 3.704C6.70272 3.80981 6.63429 3.93323 6.63429 4.07443C6.63429 4.95614 7.51524 7.3902 9.27714 11.3755C8.69081 12.1872 8.17183 13.1039 7.72291 14.1268C2.57424 14.6555 -2.21591e-07 15.202 -2.21591e-07 15.7664V23.1735C-2.21591e-07 23.7376 2.57424 24.2846 7.72291 24.8131C8.13661 25.7651 8.65541 26.6826 9.27714 27.5645C7.51524 31.5505 6.63429 33.9834 6.63429 34.8655C6.63429 35.0058 6.70272 35.1298 6.84196 35.2356C11.0563 37.7397 13.1994 38.9918 13.2684 38.9918C13.5447 38.9918 14.3399 38.1633 15.6526 36.5053C16.9652 34.8474 17.8636 33.6488 18.3468 32.9077C19.0377 32.9778 19.5558 33.0135 19.9023 33.0135C20.2476 33.0135 20.7653 32.9778 21.456 32.9077C21.9387 33.6488 22.8376 34.8472 24.1502 36.5053C25.4629 38.1633 26.2574 38.9918 26.5346 38.9918C26.6036 38.9918 28.7469 37.7397 32.9616 35.2356C33.1008 35.1298 33.1685 35.0064 33.1685 34.8655C33.1685 33.9834 32.2872 31.5505 30.5259 27.5645C31.1478 26.6826 31.6657 25.7656 32.0801 24.8131C37.2286 24.2844 39.803 23.7376 39.803 23.1735V15.7664C39.803 15.202 37.2286 14.6553 32.0801 14.1261ZM24.5906 24.2578C23.2967 25.5807 21.7325 26.2421 19.901 26.2421C18.0691 26.2421 16.5056 25.5807 15.2109 24.2578C13.915 22.9356 13.2664 21.3393 13.2664 19.4699C13.2664 17.6359 13.9237 16.0483 15.2369 14.7079C16.5493 13.3676 18.1045 12.6973 19.9009 12.6973C21.6969 12.6973 23.2529 13.3683 24.5661 14.7079C25.8782 16.0481 26.5355 17.6359 26.5355 19.4699C26.5344 21.3393 25.8871 22.9356 24.5906 24.2578Z" transform="translate(236.248 113.321) scale(1.5)" fill="#4796BA"/>
</svg>
